      :::::::::  :::::::::   ::::::::::: ::::::::  ::::    ::: :::::::::: 
     :+:    :+: :+:    :+:      :+:    :+:    :+: :+:+:   :+: :+:         
    +:+    +:+ +:+    +:+      +:+    +:+    +:+ :+:+:+  +:+ +:+          
   +#++:++#+  +#++:++#+       +#+    +#+    +:+ +#+ +:+ +#+ +#++:++#      
  +#+        +#+    +#+      +#+    +#+    +#+ +#+  +#+#+# +#+            
 #+#        #+#    #+#      #+#    #+#    #+# #+#   #+#+# #+#             
###        #########       ###     ########  ###    #### ########## 




General
Format                           : Flash Video
File size                        : 39.0 MiB
Duration                         : 4mn 5s
Overall bit rate                 : 1 331 Kbps
httphostheader                   : v1.cache6.c.youtube.com

Video
Format                           : AVC
Format/Info                      : Advanced Video Codec
Format profile                   : Main@L3.1
Format settings, CABAC           : Yes
Format settings, ReFrames        : 3 frames
Duration                         : 4mn 5s
Bit rate                         : 1 202 Kbps
Width                            : 854 pixels
Height                           : 470 pixels
Display aspect ratio             : 16:9
Frame rate mode                  : Constant
Frame rate                       : 29.970 fps
Color space                      : YUV
Chroma subsampling               : 4:2:0
Bit depth                        : 8 bits
Scan type                        : Progressive
Bits/(Pixel*Frame)               : 0.100
Stream size                      : 35.2 MiB (90%)

Audio
Format                           : AAC
Format/Info                      : Advanced Audio Codec
Format version                   : Version 4
Format profile                   : LC
Duration                         : 4mn 5s
Bit rate                         : 122 Kbps
Channel(s)                       : 2 channels
Channel positions                : Front: L R
Sampling rate                    : 44.1 KHz
Bit depth                        : 16 bits
Compression mode                 : Lossy
Stream size                      : 3.58 MiB (9%)




Screens:- http://imagehacks.in/share-A7F4_4CF20C1F.html